<?xml version="1.0" encoding="utf-8"?>
<!-- Generator: Adobe Illustrator 26.1.0, SVG Export Plug-In . SVG Version: 6.00 Build 0)  -->
<svg version="1.1" id="图层_1" xmlns="http://www.w3.org/2000/svg" xmlns:xlink="http://www.w3.org/1999/xlink" x="0px" y="0px"
	 viewBox="0 0 25 25" style="enable-background:new 0 0 25 25;" xml:space="preserve">
<style type="text/css">
	.st0{fill:#C2C1C1;}
	.st1{fill:#DA413F;}
	.st2{fill:#8A8A8A;}
	.st3{fill:#0250CC;}
	.st4{fill:#FFBF00;}
	.st5{fill:#5FC3DE;}
	.st6{fill:#EA8B2F;}
</style>
<path class="st0" d="M20.8,12.6c0,0.8-0.7,1.7-1.7,1.7c-2.2-0.2-2.2-3.2,0-3.4C20,10.9,20.8,11.6,20.8,12.6z"/>
<path class="st1" d="M19.2,17.5c-0.8,0-1.7,0.7-1.7,1.7c0.2,2.2,3.2,2.2,3.4,0C20.8,18.2,20,17.5,19.2,17.5z"/>
<path class="st2" d="M24,17.2c0.5,0,1-0.4,1-1V7.4c0-0.5-0.4-1-1-1h-6.2v-1c-0.3-7.1-10.4-7.1-10.7,0v1.1H1c-0.5,0-1,0.4-1,1v13.7
	c0,2,1.8,3.8,3.9,3.8h17.2c2.2,0,3.9-1.8,3.9-3.9c0-0.5-0.4-1-1-1s-1,0.4-1,1c0,1.1-0.9,2-2,2H3.9c-1.1,0-2-0.9-2-2V8.4h6.2
	c0.5,0,1-0.4,1-1v-2c0.2-4.5,6.6-4.5,6.8,0v1.1H12c-1.3,0.1-1.3,1.9,0,2h11v7.8C23,16.7,23.5,17.2,24,17.2z"/>
<path class="st3" d="M12.5,17.5c-0.8,0-1.7,0.7-1.7,1.7c0.2,2.2,3.2,2.2,3.4,0C14.2,18.2,13.4,17.5,12.5,17.5z"/>
<path class="st4" d="M5.9,17.5c-0.8,0-1.7,0.7-1.7,1.7c0.2,2.2,3.2,2.2,3.4,0C7.6,18.2,6.8,17.5,5.9,17.5z"/>
<path class="st5" d="M5.9,10.9c-0.8,0-1.7,0.7-1.7,1.7c0.2,2.2,3.2,2.2,3.4,0C7.6,11.6,6.8,10.9,5.9,10.9z"/>
<path class="st6" d="M12.5,10.9c-0.8,0-1.7,0.7-1.7,1.7c0.2,2.2,3.2,2.2,3.4,0C14.2,11.6,13.4,10.9,12.5,10.9z"/>
</svg>
