<?xml version="1.0" encoding="utf-8"?>
<!-- Generator: Adobe Illustrator 26.1.0, SVG Export Plug-In . SVG Version: 6.00 Build 0)  -->
<svg version="1.1" xmlns="http://www.w3.org/2000/svg" xmlns:xlink="http://www.w3.org/1999/xlink" x="0px" y="0px"
	 viewBox="0 0 25 25" style="enable-background:new 0 0 25 25;" xml:space="preserve">
<style type="text/css">
	.st0{display:none;}
	.st1{display:inline;fill:#C2C1C1;}
	.st2{display:inline;fill:#DA413F;}
	.st3{display:inline;fill:#8A8A8A;}
	.st4{display:inline;fill:#003399;}
	.st5{display:inline;fill:#FFBF00;}
	.st6{display:inline;fill:#5FC3DE;}
	.st7{display:inline;fill:#EA8B2F;}
	.st8{display:inline;fill:#0250CC;}
	.st9{fill:#8A8A8A;}
	.st10{fill:#C2C1C1;}
	.st11{fill:#DA413F;}
	.st12{fill:#0250CC;}
	.st13{fill:#FFBF00;}
	.st14{fill:#5FC3DE;}
	.st15{fill:#EA8B2F;}
</style>
<g id="_x36_圆" class="st0">
	<path class="st1" d="M17.4,13.9c0,0.5-0.4,1-1,1c-1.3-0.1-1.3-1.9,0-2C16.9,12.9,17.4,13.3,17.4,13.9z"/>
	<path class="st2" d="M16.4,16.8c-0.5,0-1,0.4-1,1c0.1,1.3,1.9,1.3,2,0C17.4,17.2,16.9,16.8,16.4,16.8z"/>
	<path class="st3" d="M24,17.2c0.5,0,1-0.4,1-1V7.4c0-0.5-0.4-1-1-1h-6.2v-1c-0.3-7.1-10.4-7.1-10.7,0v1.1H1c-0.5,0-1,0.4-1,1v13.7
		c0,2,1.8,3.8,3.9,3.8h17.2c2.2,0,3.9-1.8,3.9-3.9c0-0.5-0.4-1-1-1s-1,0.4-1,1c0,1.1-0.9,2-2,2H3.9c-1.1,0-2-0.9-2-2V8.4h6.2
		c0.5,0,1-0.4,1-1v-2c0.2-4.5,6.6-4.5,6.8,0v1.1H12c-1.3,0.1-1.3,1.9,0,2h11v7.8C23,16.7,23.5,17.2,24,17.2z"/>
	<path class="st4" d="M12.5,16.8c-0.5,0-1,0.4-1,1c0.1,1.3,1.9,1.3,2,0C13.5,17.2,13,16.8,12.5,16.8z"/>
	<path class="st5" d="M8.6,16.8c-0.5,0-1,0.4-1,1c0.1,1.3,1.9,1.3,2,0C9.6,17.2,9.1,16.8,8.6,16.8z"/>
	<path class="st6" d="M8.6,12.9c-0.5,0-1,0.4-1,1c0.1,1.3,1.9,1.3,2,0C9.6,13.3,9.1,12.9,8.6,12.9z"/>
	<path class="st7" d="M12.5,12.9c-0.5,0-1,0.4-1,1c0.1,1.3,1.9,1.3,2,0C13.5,13.3,13,12.9,12.5,12.9z"/>
</g>
<g id="_x36_圆大" class="st0">
	<path class="st1" d="M20.8,12.6c0,0.8-0.7,1.7-1.7,1.7c-2.2-0.2-2.2-3.2,0-3.4C20,10.9,20.8,11.6,20.8,12.6z"/>
	<path class="st2" d="M19.2,17.5c-0.8,0-1.7,0.7-1.7,1.7c0.2,2.2,3.2,2.2,3.4,0C20.8,18.2,20,17.5,19.2,17.5z"/>
	<path class="st3" d="M24,17.2c0.5,0,1-0.4,1-1V7.4c0-0.5-0.4-1-1-1h-6.2v-1c-0.3-7.1-10.4-7.1-10.7,0v1.1H1c-0.5,0-1,0.4-1,1v13.7
		c0,2,1.8,3.8,3.9,3.8h17.2c2.2,0,3.9-1.8,3.9-3.9c0-0.5-0.4-1-1-1s-1,0.4-1,1c0,1.1-0.9,2-2,2H3.9c-1.1,0-2-0.9-2-2V8.4h6.2
		c0.5,0,1-0.4,1-1v-2c0.2-4.5,6.6-4.5,6.8,0v1.1H12c-1.3,0.1-1.3,1.9,0,2h11v7.8C23,16.7,23.5,17.2,24,17.2z"/>
	<path class="st8" d="M12.5,17.5c-0.8,0-1.7,0.7-1.7,1.7c0.2,2.2,3.2,2.2,3.4,0C14.2,18.2,13.4,17.5,12.5,17.5z"/>
	<path class="st5" d="M5.9,17.5c-0.8,0-1.7,0.7-1.7,1.7c0.2,2.2,3.2,2.2,3.4,0C7.6,18.2,6.8,17.5,5.9,17.5z"/>
	<path class="st6" d="M5.9,10.9c-0.8,0-1.7,0.7-1.7,1.7c0.2,2.2,3.2,2.2,3.4,0C7.6,11.6,6.8,10.9,5.9,10.9z"/>
	<path class="st7" d="M12.5,10.9c-0.8,0-1.7,0.7-1.7,1.7c0.2,2.2,3.2,2.2,3.4,0C14.2,11.6,13.4,10.9,12.5,10.9z"/>
</g>
<g id="_x36_圆中">
	<path class="st9" d="M24,17.2c0.5,0,1-0.4,1-1V7.4c0-0.5-0.4-1-1-1h-6.2v-1c-0.3-7.1-10.4-7.1-10.7,0v1.1H1c-0.5,0-1,0.4-1,1v13.7
		c0,2,1.8,3.8,3.9,3.8h17.2c2.2,0,3.9-1.8,3.9-3.9c0-0.5-0.4-1-1-1s-1,0.4-1,1c0,1.1-0.9,2-2,2H3.9c-1.1,0-2-0.9-2-2V8.4h6.2
		c0.5,0,1-0.4,1-1v-2c0.2-4.5,6.6-4.5,6.8,0v1.1H12c-1.3,0.1-1.3,1.9,0,2h11v7.8C23,16.7,23.5,17.2,24,17.2z"/>
	<path class="st10" d="M18.7,13.5c0,0.6-0.5,1.3-1.3,1.3c-1.6-0.1-1.6-2.4,0-2.5C18.1,12.2,18.7,12.7,18.7,13.5z"/>
	<path class="st11" d="M17.4,17.1c-0.6,0-1.3,0.5-1.3,1.3c0.1,1.6,2.4,1.6,2.5,0C18.7,17.7,18.1,17.1,17.4,17.1z"/>
	<path class="st12" d="M12.5,17.1c-0.6,0-1.3,0.5-1.3,1.3c0.1,1.6,2.4,1.6,2.5,0C13.8,17.7,13.1,17.1,12.5,17.1z"/>
	<path class="st13" d="M7.6,17.1c-0.6,0-1.3,0.5-1.3,1.3c0.1,1.6,2.4,1.6,2.5,0C8.8,17.7,8.2,17.1,7.6,17.1z"/>
	<path class="st14" d="M7.6,12.2c-0.6,0-1.3,0.5-1.3,1.3c0.1,1.6,2.4,1.6,2.5,0C8.8,12.7,8.2,12.2,7.6,12.2z"/>
	<path class="st15" d="M12.5,12.2c-0.6,0-1.3,0.5-1.3,1.3c0.1,1.6,2.4,1.6,2.5,0C13.8,12.7,13.1,12.2,12.5,12.2z"/>
</g>
<g id="_x34_圆" class="st0">
	<path class="st10" d="M20.8,12.6c0,0.8-0.7,1.7-1.7,1.7c-2.2-0.2-2.2-3.2,0-3.4C20,10.9,20.8,11.6,20.8,12.6z"/>
	<path class="st11" d="M19.2,17.5c-0.8,0-1.7,0.7-1.7,1.7c0.2,2.2,3.2,2.2,3.4,0C20.8,18.2,20,17.5,19.2,17.5z"/>
	<path class="st3" d="M24,17.2c0.5,0,1-0.4,1-1V7.4c0-0.5-0.4-1-1-1h-6.2v-1c-0.3-7.1-10.4-7.1-10.7,0v1.1H1c-0.5,0-1,0.4-1,1v13.7
		c0,2,1.8,3.8,3.9,3.8h17.2c2.2,0,3.9-1.8,3.9-3.9c0-0.5-0.4-1-1-1s-1,0.4-1,1c0,1.1-0.9,2-2,2H3.9c-1.1,0-2-0.9-2-2V8.4h6.2
		c0.5,0,1-0.4,1-1v-2c0.2-4.5,6.6-4.5,6.8,0v1.1H12c-1.3,0.1-1.3,1.9,0,2h11v7.8C23,16.7,23.5,17.2,24,17.2z"/>
	<path class="st1" d="M16.3,17.1c-1,0-1.9,0.8-1.9,1.9c0.2,2.5,3.6,2.5,3.8,0C18.2,17.8,17.3,17.1,16.3,17.1z"/>
	<path class="st5" d="M8.8,17.1c-1,0-1.9,0.8-1.9,1.9c0.2,2.5,3.6,2.5,3.8,0C10.8,17.8,9.8,17.1,8.8,17.1z"/>
	<path class="st6" d="M8.8,10.6c-1,0-1.9,0.8-1.9,1.9c0.2,2.5,3.6,2.5,3.8,0C10.8,11.3,9.8,10.6,8.8,10.6z"/>
	<path class="st7" d="M16.3,10.6c-1,0-1.9,0.8-1.9,1.9c0.2,2.5,3.6,2.5,3.8,0C18.2,11.3,17.3,10.6,16.3,10.6z"/>
</g>
<g id="_x34_方块" class="st0">
	<path class="st10" d="M20.8,12.6c0,0.8-0.7,1.7-1.7,1.7c-2.2-0.2-2.2-3.2,0-3.4C20,10.9,20.8,11.6,20.8,12.6z"/>
	<path class="st11" d="M19.2,17.5c-0.8,0-1.7,0.7-1.7,1.7c0.2,2.2,3.2,2.2,3.4,0C20.8,18.2,20,17.5,19.2,17.5z"/>
	<path class="st3" d="M24,17.2c0.5,0,1-0.4,1-1V7.4c0-0.5-0.4-1-1-1h-6.2v-1c-0.3-7.1-10.4-7.1-10.7,0v1.1H1c-0.5,0-1,0.4-1,1v13.7
		c0,2,1.8,3.8,3.9,3.8h17.2c2.2,0,3.9-1.8,3.9-3.9c0-0.5-0.4-1-1-1s-1,0.4-1,1c0,1.1-0.9,2-2,2H3.9c-1.1,0-2-0.9-2-2V8.4h6.2
		c0.5,0,1-0.4,1-1v-2c0.2-4.5,6.6-4.5,6.8,0v1.1H12c-1.3,0.1-1.3,1.9,0,2h11v7.8C23,16.7,23.5,17.2,24,17.2z"/>
	<path class="st6" d="M11.7,11.2c0.2,0,0.3,0.1,0.4,0.2c0.1,0.1,0.2,0.2,0.2,0.4v2.8c0,0.2-0.1,0.3-0.2,0.4
		c-0.1,0.1-0.2,0.2-0.4,0.2H8.9c-0.2,0-0.3-0.1-0.4-0.2s-0.2-0.2-0.2-0.4v-2.8c0-0.2,0.1-0.3,0.2-0.4c0.1-0.1,0.2-0.2,0.4-0.2
		C8.9,11.2,11.7,11.2,11.7,11.2z"/>
	<path class="st7" d="M17,11.2c0.2,0,0.3,0.1,0.4,0.2c0.1,0.1,0.2,0.2,0.2,0.4v2.8c0,0.2-0.1,0.3-0.2,0.4c-0.1,0.1-0.2,0.2-0.4,0.2
		h-2.8c-0.2,0-0.3-0.1-0.4-0.2c-0.1-0.1-0.2-0.2-0.2-0.4v-2.8c0-0.2,0.1-0.3,0.2-0.4c0.1-0.1,0.2-0.2,0.4-0.2
		C14.2,11.2,17,11.2,17,11.2z"/>
	<path class="st5" d="M11.7,16.4c0.2,0,0.3,0.1,0.4,0.2c0.1,0.1,0.2,0.2,0.2,0.4v2.8c0,0.2-0.1,0.3-0.2,0.4
		c-0.1,0.1-0.2,0.2-0.4,0.2H8.9c-0.2,0-0.3-0.1-0.4-0.2c-0.1-0.1-0.2-0.2-0.2-0.4v-2.8c0-0.2,0.1-0.3,0.2-0.4s0.2-0.2,0.4-0.2
		C8.9,16.4,11.7,16.4,11.7,16.4z"/>
	<path class="st1" d="M17,16.4c0.2,0,0.3,0.1,0.4,0.2c0.1,0.1,0.2,0.2,0.2,0.4v2.8c0,0.2-0.1,0.3-0.2,0.4c-0.1,0.1-0.2,0.2-0.4,0.2
		h-2.8c-0.2,0-0.3-0.1-0.4-0.2c-0.1-0.1-0.2-0.2-0.2-0.4v-2.8c0-0.2,0.1-0.3,0.2-0.4c0.1-0.1,0.2-0.2,0.4-0.2
		C14.2,16.4,17,16.4,17,16.4z"/>
	<path class="st10" d="M16.3,17.1c-1,0-1.9,0.8-1.9,1.9c0.2,2.5,3.6,2.5,3.8,0C18.2,17.8,17.3,17.1,16.3,17.1z"/>
	<path class="st13" d="M8.8,17.1c-1,0-1.9,0.8-1.9,1.9c0.2,2.5,3.6,2.5,3.8,0C10.8,17.8,9.8,17.1,8.8,17.1z"/>
	<path class="st14" d="M8.8,10.6c-1,0-1.9,0.8-1.9,1.9c0.2,2.5,3.6,2.5,3.8,0C10.8,11.3,9.8,10.6,8.8,10.6z"/>
	<path class="st15" d="M16.3,10.6c-1,0-1.9,0.8-1.9,1.9c0.2,2.5,3.6,2.5,3.8,0C18.2,11.3,17.3,10.6,16.3,10.6z"/>
</g>
</svg>
