<?xml version="1.0" standalone="no"?><!DOCTYPE svg PUBLIC "-//W3C//DTD SVG 1.1//EN" "http://www.w3.org/Graphics/SVG/1.1/DTD/svg11.dtd"><svg t="1641979263536" class="icon" viewBox="0 0 1024 1024" version="1.1" xmlns="http://www.w3.org/2000/svg" p-id="1901" xmlns:xlink="http://www.w3.org/1999/xlink" width="200" height="200"><defs><style type="text/css"></style></defs><path d="M773.9392 301.8752m-200.0384 0a200.0384 200.0384 0 1 0 400.0768 0 200.0384 200.0384 0 1 0-400.0768 0Z" fill="#FFCC2D" p-id="1902"></path><path d="M924.4672 706.2528a24.32 24.32 0 0 1-24.2688 24.2688h-145.7664a24.3712 24.3712 0 0 0-24.2688 24.32 24.2688 24.2688 0 0 0 24.2688 24.2688h48.5888a24.32 24.32 0 0 1 24.2688 24.32 24.32 24.32 0 0 1-24.2688 24.2688h-64.512A388.7616 388.7616 0 0 1 122.88 390.4512h-48.5888a24.32 24.32 0 0 1 0-48.5888h97.28a24.2688 24.2688 0 0 0 6.8096-47.5648l0.768-0.9728H122.88a24.32 24.32 0 1 1 0-48.5888h101.632a388.7616 388.7616 0 0 1 619.52 437.248h56.32a24.32 24.32 0 0 1 24.1152 24.2688z" fill="#F63E48" p-id="1903"></path><path d="M279.04 325.12m30.72 0l122.88 0q30.72 0 30.72 30.72l0 122.88q0 30.72-30.72 30.72l-122.88 0q-30.72 0-30.72-30.72l0-122.88q0-30.72 30.72-30.72Z" fill="#FFFFFF" p-id="1904"></path><path d="M663.04 345.6a10.24 10.24 0 0 1 10.24 10.24v122.88a10.24 10.24 0 0 1-10.24 10.24h-122.88a10.24 10.24 0 0 1-10.24-10.24v-122.88a10.24 10.24 0 0 1 10.24-10.24h122.88m0-20.48h-122.88a30.72 30.72 0 0 0-30.72 30.72v122.88a30.72 30.72 0 0 0 30.72 30.72h122.88a30.72 30.72 0 0 0 30.72-30.72v-122.88a30.72 30.72 0 0 0-30.72-30.72zM432.64 576a10.24 10.24 0 0 1 10.24 10.24v122.88a10.24 10.24 0 0 1-10.24 10.24h-122.88a10.24 10.24 0 0 1-10.24-10.24v-122.88a10.24 10.24 0 0 1 10.24-10.24h122.88m0-20.48h-122.88a30.72 30.72 0 0 0-30.72 30.72v122.88a30.72 30.72 0 0 0 30.72 30.72h122.88a30.72 30.72 0 0 0 30.72-30.72v-122.88a30.72 30.72 0 0 0-30.72-30.72z" fill="#FFFFFF" p-id="1905"></path><path d="M509.44 555.52m30.72 0l122.88 0q30.72 0 30.72 30.72l0 122.88q0 30.72-30.72 30.72l-122.88 0q-30.72 0-30.72-30.72l0-122.88q0-30.72 30.72-30.72Z" fill="#FFFFFF" p-id="1906"></path></svg>