<svg xmlns="http://www.w3.org/2000/svg" viewBox="0 0 25 25"><path d="M17.4 13.9c0 .5-.4 1-1 1-1.3-.1-1.3-1.9 0-2 .5 0 1 .4 1 1z" fill="#c2c1c1"/><path d="M16.4 16.8c-.5 0-1 .4-1 1 .1 1.3 1.9 1.3 2 0 0-.6-.5-1-1-1z" fill="#da413f"/><path d="M24 17.2c.5 0 1-.4 1-1V7.4c0-.5-.4-1-1-1h-6.2v-1c-.3-7.1-10.4-7.1-10.7 0v1.1H1c-.5 0-1 .4-1 1v13.7c0 2 1.8 3.8 3.9 3.8h17.2c2.2 0 3.9-1.8 3.9-3.9 0-.5-.4-1-1-1s-1 .4-1 1c0 1.1-.9 2-2 2H3.9c-1.1 0-2-.9-2-2V8.4h6.2c.5 0 1-.4 1-1v-2c.2-4.5 6.6-4.5 6.8 0v1.1H12c-1.3.1-1.3 1.9 0 2h11v7.8c0 .4.5.9 1 .9z" fill="#8a8a8a"/><path d="M12.5 16.8c-.5 0-1 .4-1 1 .1 1.3 1.9 1.3 2 0 0-.6-.5-1-1-1z" fill="#039"/><path d="M8.6 16.8c-.5 0-1 .4-1 1 .1 1.3 1.9 1.3 2 0 0-.6-.5-1-1-1z" fill="#ffbf00"/><path d="M8.6 12.9c-.5 0-1 .4-1 1 .1 1.3 1.9 1.3 2 0 0-.6-.5-1-1-1z" fill="#5fc3de"/><path d="M12.5 12.9c-.5 0-1 .4-1 1 .1 1.3 1.9 1.3 2 0 0-.6-.5-1-1-1z" fill="#ea8b2f"/></svg>
